<svg
  width="64"
  height="64"
  viewBox="0 0 64 64"
  fill="none"
  xmlns="http://www.w3.org/2000/svg"
>
  <title>한화오션에코텍</title>
  <rect width="64" height="64" rx="16" fill="#F37321" />
  <g transform="translate(8 10) scale(0.75)" fill="#FFFFFF">
    <path
      d="M23.5825 29.6964C22.7548 22.1655 30.6536 16.1264 41.2091 16.2082C51.7749 16.2899 61.0123 22.4618 61.84 29.9825C62.6676 37.5237 54.7791 43.5525 44.2133 43.4707C33.6476 43.389 24.4102 37.2273 23.5825 29.6964ZM63.8121 32.0262C62.8618 22.6866 52.2245 15.0433 40.0647 14.9411C27.8946 14.8389 18.8105 22.329 19.771 31.6685C20.7316 41.0081 31.3586 48.6617 43.5185 48.7638C55.6783 48.8558 64.7726 41.376 63.8121 32.0262Z"
    />
    <path
      d="M45.4498 48.9477C39.4619 55.2116 29.8464 55.7327 23.9709 50.1126C18.0953 44.4925 18.1975 34.8669 24.1957 28.6132C30.1836 22.3596 39.8093 21.8385 45.6644 27.4484C51.5297 33.0684 51.4378 42.6941 45.4396 48.9477M23.2454 28.4089C16.2867 35.6843 16.1743 46.8734 22.9899 53.4029C29.8055 59.9325 40.9946 59.3296 47.9533 52.0541C54.9222 44.7787 55.0346 33.5896 48.2088 27.0601C41.3931 20.5305 30.2143 21.1334 23.2454 28.4089Z"
    />
    <path
      d="M23.8993 4.98847C36.3554 0.318682 48.6788 5.03956 51.4173 15.5338C54.1558 26.0383 46.2774 38.3207 33.8213 42.9905C21.3651 47.6705 9.0418 42.9394 6.30328 32.4452C3.55455 21.9509 11.4431 9.65825 23.8993 4.98847ZM12.3219 8.99406C-0.594102 19.2328 -3.88441 34.0597 4.97489 42.1117C13.8342 50.174 31.5017 48.4062 44.4279 38.1674C57.3541 27.9389 60.6444 13.112 51.7749 5.04978C42.9156 -3.00228 25.2481 -1.23451 12.3219 8.99406Z"
    />
  </g>
  <circle
    cx="51"
    cy="51"
    r="7"
    fill="#4A9D67"
    stroke="#FFFFFF"
    stroke-width="2"
  />
</svg>
